<svg width="1280" height="720" viewBox="0 0 1280 720" fill="none" xmlns="http://www.w3.org/2000/svg">
<g clip-path="url(#clip0_2004_93)">
<rect width="1280" height="720" fill="white"/>
<rect width="1280" height="720" fill="white"/>
<path d="M110.727 279.919C117.036 270.075 125.742 262.124 136.845 256.066C147.948 250.008 160.944 246.979 175.833 246.979C193.245 246.979 209.016 251.396 223.148 260.231C237.279 269.065 248.382 281.686 256.457 298.094C264.785 314.501 268.949 333.559 268.949 355.267C268.949 376.975 264.785 396.159 256.457 412.819C248.382 429.227 237.279 441.974 223.148 451.061C209.016 459.896 193.245 464.313 175.833 464.313C161.196 464.313 148.201 461.284 136.845 455.226C125.742 449.168 117.036 441.343 110.727 431.751V562H46V250.008H110.727V279.919ZM203.086 355.267C203.086 339.112 198.544 326.491 189.459 317.404C180.627 308.064 169.65 303.395 156.528 303.395C143.658 303.395 132.681 308.064 123.597 317.404C114.765 326.744 110.349 339.491 110.349 355.646C110.349 371.801 114.765 384.548 123.597 393.888C132.681 403.227 143.658 407.897 156.528 407.897C169.398 407.897 180.375 403.227 189.459 393.888C198.544 384.296 203.086 371.422 203.086 355.267Z" fill="#1E1E1E"/>
<path d="M335.459 228.047C324.103 228.047 314.766 224.765 307.448 218.203C300.383 211.387 296.85 203.057 296.85 193.213C296.85 183.116 300.383 174.786 307.448 168.223C314.766 161.408 324.103 158 335.459 158C346.562 158 355.647 161.408 362.712 168.223C370.03 174.786 373.689 183.116 373.689 193.213C373.689 203.057 370.03 211.387 362.712 218.203C355.647 224.765 346.562 228.047 335.459 228.047ZM367.633 250.008V461.284H302.906V250.008H367.633Z" fill="#1E1E1E"/>
<path d="M543.237 247.736C567.967 247.736 587.65 255.813 602.286 271.968C617.175 287.871 624.619 309.831 624.619 337.85V461.284H560.271V346.559C560.271 332.423 556.611 321.443 549.293 313.618C541.975 305.793 532.134 301.88 519.769 301.88C507.404 301.88 497.562 305.793 490.244 313.618C482.926 321.443 479.267 332.423 479.267 346.559V461.284H414.54V250.008H479.267V278.026C485.828 268.687 494.66 261.367 505.763 256.066C516.867 250.512 529.358 247.736 543.237 247.736Z" fill="#1E1E1E"/>
<path d="M787.318 406.382V461.284H754.387C730.918 461.284 712.623 455.604 699.501 444.246C686.379 432.634 679.818 413.829 679.818 387.829V303.773H654.078V250.008H679.818V198.514H744.545V250.008H786.939V303.773H744.545V388.587C744.545 394.897 746.059 399.441 749.087 402.217C752.115 404.994 757.162 406.382 764.228 406.382H787.318Z" fill="#1E1E1E"/>
<path d="M1026.16 348.576C1026.16 354.635 1025.78 360.945 1025.03 367.508H878.538C879.548 380.634 883.711 390.731 891.03 397.799C898.6 404.614 907.811 408.022 918.662 408.022C934.812 408.022 946.041 401.206 952.35 387.575H1021.24C1017.71 401.459 1011.27 413.953 1001.94 425.06C992.852 436.167 981.37 444.875 967.491 451.186C953.612 457.496 938.092 460.651 920.933 460.651C900.24 460.651 881.819 456.234 865.669 447.399C849.518 438.565 836.901 425.943 827.817 409.536C818.732 393.129 814.19 373.945 814.19 351.984C814.19 330.023 818.606 310.839 827.438 294.432C836.523 278.025 849.14 265.404 865.29 256.569C881.44 247.734 899.988 243.317 920.933 243.317C941.373 243.317 959.542 247.608 975.44 256.19C991.338 264.773 1003.7 277.015 1012.53 292.918C1021.62 308.82 1026.16 327.373 1026.16 348.576ZM959.92 331.538C959.92 320.431 956.135 311.597 948.565 305.034C940.994 298.471 931.531 295.189 920.176 295.189C909.325 295.189 900.114 298.345 892.544 304.655C885.226 310.966 880.683 319.927 878.917 331.538H959.92Z" fill="#1E1E1E"/>
<path d="M1125.22 158L1146.38 365.595L1125.22 459.118H1061.06V158H1125.22Z" fill="#5DA9E9"/>
<path d="M1234 158V459.118H1169.86L1150.04 365.595L1169.86 158L1234 158Z" fill="#5DA9E9"/>
<path d="M1192.24 367.129C1192.24 391.193 1172.26 410.701 1147.6 410.701C1122.94 410.701 1102.95 391.193 1102.95 367.129C1102.95 343.064 1122.94 323.556 1147.6 323.556C1172.26 323.556 1192.24 343.064 1192.24 367.129Z" fill="white"/>
<path d="M1169.86 367.129C1169.86 378.746 1159.87 388.164 1147.54 388.164C1135.21 388.164 1125.22 378.746 1125.22 367.129C1125.22 355.511 1135.21 346.093 1147.54 346.093C1159.87 346.093 1169.86 355.511 1169.86 367.129Z" fill="#1E1E1E"/>
</g>
<defs>
<clipPath id="clip0_2004_93">
<rect width="1280" height="720" fill="white"/>
</clipPath>
</defs>
</svg>
